<svg width="32" height="32" viewBox="0 0 32 32" fill="none" xmlns="http://www.w3.org/2000/svg">
<g filter="url(#filter0_d_88_49)">
<path d="M19.3877 0.821289C19.9375 0.821365 20.3828 1.2676 20.3828 1.81738V3.625C21.5785 3.90978 22.7086 4.36262 23.7471 4.95801L25.1523 3.38965C25.519 2.98022 26.148 2.94517 26.5576 3.31152L29.7002 6.12598C30.1095 6.49277 30.1439 7.12174 29.7773 7.53125L28.2246 9.26465C28.9503 10.423 29.4964 11.7055 29.8203 13.0742C28.1854 13.3206 26.5107 13.5127 25.0693 13.5127C22.5555 13.5069 21.9226 11.4979 19.958 10.6543L16.7559 16.3096C16.3563 17.0199 15.6788 17.2978 14.8242 16.8096L11.5 14.8838C11.3669 15.2056 11.2719 15.7327 11.2607 16.2764C11.233 19.5565 13.8918 22.2924 17.0332 22.3701C21.6394 22.4809 22.1892 18.2801 25.458 18.2744C26.9108 18.2765 28.4178 18.4614 29.8789 18.6992C29.5529 20.2219 28.9523 21.6425 28.1357 22.9102L29.7773 24.7432C30.1442 25.1527 30.1098 25.7826 29.7002 26.1494L26.5576 28.9629C26.1481 29.3294 25.5191 29.2951 25.1523 28.8857L23.6064 27.1592C22.6068 27.7157 21.5248 28.1401 20.3828 28.4121V30.2002C20.3828 30.75 19.9375 31.1962 19.3877 31.1963H15.1699C14.6201 31.1963 14.1748 30.75 14.1748 30.2002V28.3438C13.064 28.0519 12.0144 27.6112 11.0439 27.0488L9.39941 28.8857C9.0326 29.295 8.40364 29.3295 7.99414 28.9629L4.85156 26.1494C4.4421 25.7826 4.40764 25.1527 4.77441 24.7432L6.58398 22.7217C5.85925 21.5523 5.31742 20.2578 5.00098 18.877H3.01562C2.466 18.8767 2.02051 18.4305 2.02051 17.8809V13.6631C2.02068 13.1136 2.46611 12.6682 3.01562 12.668H5.125C5.43577 11.5251 5.90115 10.4462 6.49805 9.45508L4.77441 7.53125C4.40797 7.12177 4.4424 6.49275 4.85156 6.12598L7.99414 3.31152C8.40372 2.94507 9.03271 2.98022 9.39941 3.38965L10.9043 5.06934C11.913 4.4677 13.0109 4.00006 14.1748 3.69434V1.81738C14.1748 1.26755 14.6201 0.821289 15.1699 0.821289H19.3877ZM18.4482 16.7373C18.5483 16.549 18.7756 16.4989 18.9531 16.5986L21.0068 17.7969C21.1897 17.9022 21.2397 18.0968 21.1348 18.3018C21.0516 18.4626 20.824 18.5243 20.6465 18.4248L18.5762 17.2314C18.4153 17.1371 18.3486 16.9149 18.4482 16.7373ZM19.0869 15.6885C19.187 15.5001 19.4143 15.45 19.5918 15.5498L21.6455 16.748C21.8284 16.8534 21.8775 17.0478 21.7725 17.2529C21.6892 17.4139 21.4617 17.4749 21.2842 17.375L19.2139 16.1816C19.0534 16.0871 18.9872 15.8658 19.0869 15.6885ZM19.7139 14.6387C19.814 14.4728 20.0473 14.4058 20.208 14.5L22.2832 15.6992C22.4606 15.799 22.5269 16.0208 22.4053 16.1982C22.2998 16.3703 22.0946 16.4211 21.917 16.3213L19.8584 15.1279C19.6697 15.028 19.614 14.8052 19.7139 14.6387ZM17.3213 10.0381C15.6734 9.96608 14.0584 10.6818 13.3311 11.6748L16.1562 13.3018C16.4778 13.4792 16.6945 13.6844 16.8721 13.9395L18.9531 10.2598C18.4925 10.1322 17.9483 10.0548 17.3213 10.0381Z" fill="url(#paint0_linear_88_49)"/>
</g>
<defs>
<filter id="filter0_d_88_49" x="1.80717" y="0.625734" width="28.4374" height="30.8017" filterUnits="userSpaceOnUse" color-interpolation-filters="sRGB">
<feFlood flood-opacity="0" result="BackgroundImageFix"/>
<feColorMatrix in="SourceAlpha" type="matrix" values="0 0 0 0 0 0 0 0 0 0 0 0 0 0 0 0 0 0 127 0" result="hardAlpha"/>
<feOffset dy="0.0177778"/>
<feGaussianBlur stdDeviation="0.106667"/>
<feComposite in2="hardAlpha" operator="out"/>
<feColorMatrix type="matrix" values="0 0 0 0 0 0 0 0 0 0 0 0 0 0 0 0 0 0 0.25 0"/>
<feBlend mode="normal" in2="BackgroundImageFix" result="effect1_dropShadow_88_49"/>
<feBlend mode="normal" in="SourceGraphic" in2="effect1_dropShadow_88_49" result="shape"/>
</filter>
<linearGradient id="paint0_linear_88_49" x1="16.026" y1="10.2158" x2="16.026" y2="31.1963" gradientUnits="userSpaceOnUse">
<stop stop-color="#FFA006"/>
<stop offset="1" stop-color="#FF8000"/>
</linearGradient>
</defs>
</svg>
