<svg width="1800" height="1800" viewBox="0 0 1800 1800" fill="none" xmlns="http://www.w3.org/2000/svg">
<path d="M1090.55 46.2207C1121.48 46.2207 1146.55 71.293 1146.55 102.221V203.794C1213.83 219.813 1277.43 245.315 1335.86 278.812L1414.81 190.656C1435.45 167.617 1470.85 165.666 1493.89 186.3L1670.62 344.576C1693.66 365.21 1695.61 400.613 1674.98 423.652L1587.74 521.058C1628.57 586.23 1659.22 658.438 1677.43 735.449C1585.46 749.31 1491.26 760.073 1410.17 760.073C1268.75 759.76 1233.15 646.746 1122.64 599.291L942.498 917.421C920.019 957.381 881.933 972.993 833.853 945.518L646.848 837.187C639.355 855.293 634.046 884.95 633.423 915.547C631.861 1100.05 781.404 1253.97 958.109 1258.34C1217.23 1264.58 1248.14 1028.25 1432.02 1027.94C1513.77 1028.05 1598.56 1038.44 1680.78 1051.82C1662.44 1137.52 1628.77 1217.54 1582.79 1288.88L1674.98 1391.81C1695.61 1414.85 1693.66 1450.26 1670.62 1470.89L1493.89 1629.17C1470.85 1649.8 1435.45 1647.85 1414.81 1624.81L1327.94 1527.8C1271.7 1559.1 1210.8 1583.05 1146.55 1598.35V1698.78C1146.55 1729.71 1121.48 1754.78 1090.55 1754.78H853.306C822.378 1754.78 797.306 1729.71 797.306 1698.78V1594.35C734.829 1577.93 675.686 1553.3 621.1 1521.67L528.733 1624.81C508.1 1647.85 472.696 1649.8 449.657 1629.17L272.927 1470.89C249.888 1450.26 247.937 1414.85 268.57 1391.81L370.304 1278.22C329.509 1212.42 299.071 1139.52 281.265 1061.81H169.654C138.726 1061.81 113.654 1036.74 113.654 1005.81V768.566C113.654 737.638 138.726 712.566 169.654 712.566H288.216C305.693 648.283 331.892 587.593 365.464 531.844L268.57 423.652C247.937 400.613 249.888 365.21 272.927 344.576L449.657 186.3C472.696 165.667 508.1 167.617 528.733 190.656L613.283 285.064C670.025 251.22 731.835 224.993 797.306 207.794V102.221C797.306 71.2929 822.378 46.2207 853.306 46.2207H1090.55ZM1037.72 941.459C1043.34 930.845 1056.14 928.034 1066.13 933.655L1181.64 1001.09C1191.94 1007.02 1194.75 1017.95 1188.82 1029.5C1184.14 1038.55 1171.34 1041.99 1161.35 1036.37L1044.9 969.245C1035.85 963.938 1032.1 951.45 1037.72 941.459ZM1073.62 882.455C1079.24 871.84 1092.04 869.029 1102.03 874.649L1217.54 942.085C1227.85 948.015 1230.65 958.942 1224.72 970.492C1220.04 979.549 1207.24 982.982 1197.25 977.362L1080.8 910.241C1071.75 904.934 1068 892.443 1073.62 882.455ZM1108.9 823.448C1114.52 814.085 1127.63 810.338 1136.68 815.645L1253.45 883.08C1263.44 888.7 1267.18 901.187 1260.32 911.174C1254.38 920.854 1242.83 923.665 1232.84 918.048L1117.01 850.922C1106.4 845.302 1103.28 832.815 1108.9 823.448ZM974.34 564.637C881.62 560.58 790.771 600.854 749.871 656.734L908.782 748.211C926.888 758.199 939.064 769.752 949.056 784.114L1066.13 577.124C1040.21 569.944 1009.62 565.577 974.34 564.637Z" fill="url(#paint0_linear_85_2)"/>
<defs>
<linearGradient id="paint0_linear_85_2" x1="901.458" y1="574.653" x2="901.458" y2="1754.78" gradientUnits="userSpaceOnUse">
<stop stop-color="#FFA006"/>
<stop offset="1" stop-color="#FF8000"/>
</linearGradient>
</defs>
</svg>
